<svg version="1.1" id="Layer_1" xmlns="http://www.w3.org/2000/svg" xmlns:xlink="http://www.w3.org/1999/xlink" x="0px" y="0px"
	 width="100%" viewBox="0 0 480 480" enable-background="new 0 0 480 480" xml:space="preserve">
<path fill="#000000" opacity="1.000000" stroke="none" 
	d="
M287.000000,481.000000 
	C192.666672,481.000000 98.833305,480.976044 5.000122,481.095673 
	C1.575955,481.100037 0.902878,480.423676 0.905252,476.999939 
	C1.014346,319.666656 1.014346,162.333313 0.905252,5.000066 
	C0.902878,1.576335 1.576335,0.902877 5.000066,0.905251 
	C162.333313,1.014350 319.666656,1.014350 476.999939,0.905251 
	C480.423676,0.902877 481.097107,1.576335 481.094727,5.000066 
	C480.985657,162.333313 480.985657,319.666656 481.094757,476.999939 
	C481.097137,480.423676 480.424591,481.103912 476.999786,481.096741 
	C413.833405,480.964600 350.666656,481.000000 287.000000,481.000000 
z"/>
<path fill="#FFFFFF" opacity="1.000000" stroke="none" 
	d="
M324.136719,458.023682 
	C322.161194,461.340759 318.264801,460.982117 315.916412,461.598297 
	C309.745453,463.217468 303.710785,465.477661 297.203217,466.317169 
	C291.449982,467.059296 285.922729,469.583832 279.877991,470.255646 
	C274.212097,470.885376 268.493195,471.662354 262.846466,471.850067 
	C249.029053,472.309387 235.181931,472.208405 221.354752,471.932922 
	C210.611115,471.718903 199.904999,470.454956 189.459000,467.908478 
	C180.013428,465.605835 170.427078,463.399689 161.443497,459.801147 
	C149.417099,454.983795 137.625961,449.567078 126.236702,443.156799 
	C117.802460,438.409729 110.012199,432.731567 101.880013,427.620300 
	C96.986771,424.544739 92.324165,420.363556 87.960960,416.166748 
	C82.073975,410.504395 75.591873,405.460541 70.379707,399.098785 
	C64.529594,391.958405 57.914913,385.457947 53.004513,377.527283 
	C50.012249,372.694550 46.221016,368.354462 43.257526,363.506500 
	C39.577927,357.487030 36.170521,351.276855 33.032478,344.956909 
	C29.172203,337.182343 25.216169,329.385254 22.323353,321.235199 
	C21.180828,318.016296 19.699768,314.730988 19.104939,311.275787 
	C18.203913,306.042023 17.116610,300.663239 15.619756,295.774811 
	C12.920954,286.961029 12.419394,277.991272 10.692653,269.163910 
	C7.263992,251.636093 8.891892,234.096329 9.526431,216.711929 
	C9.861261,207.538589 10.734341,197.586578 14.210000,188.701202 
	C15.997993,184.130310 15.548153,179.285629 17.220379,175.056213 
	C19.805367,168.518219 21.429720,161.650375 24.350037,155.261215 
	C27.697359,147.937851 30.930899,140.578506 34.569305,133.366089 
	C39.088390,124.407890 44.171150,115.909210 49.816105,107.685661 
	C59.388893,93.740074 70.019272,80.545021 82.578041,69.301941 
	C92.986870,59.983582 104.182587,51.463253 116.062424,43.876247 
	C126.397369,37.275879 137.154968,31.476053 148.270981,26.536840 
	C156.219086,23.005228 164.621445,20.282408 173.042435,17.706966 
	C180.853317,15.318113 189.166794,14.915384 196.657120,11.276752 
	C199.192200,10.045265 202.516953,10.385563 205.332779,10.250660 
	C213.844971,9.842851 222.053986,7.050553 230.747345,7.857234 
	C238.182968,8.547205 245.733673,8.042590 253.232971,7.990398 
	C265.664948,7.903878 277.741882,10.178103 289.842316,12.796978 
	C295.486877,14.018618 301.204559,15.233964 306.884613,16.329546 
	C313.981628,17.698439 320.633667,21.310461 327.526184,23.821312 
	C334.652222,26.417248 341.351837,29.856091 348.118500,33.257275 
	C356.769745,37.605751 365.040466,42.439419 372.998016,47.940578 
	C380.605103,53.199478 387.811981,58.933292 394.999298,64.729179 
	C401.206512,69.734734 406.706909,75.469040 412.257416,81.119781 
	C416.559052,85.499100 420.066681,90.651611 424.006378,95.394707 
	C430.164429,102.808479 435.504822,110.800255 440.618256,118.939537 
	C443.262909,123.149208 445.773621,127.477699 447.928619,131.952942 
	C452.018433,140.446121 456.204926,148.837708 459.299042,157.863159 
	C462.369324,166.818863 465.298431,175.643250 467.312012,184.943298 
	C468.620728,190.987671 470.605927,196.971130 471.612762,203.154312 
	C471.690704,203.633011 471.942932,204.090286 471.979218,204.567764 
	C472.723450,214.366684 474.792938,224.036972 474.094391,233.985916 
	C473.605316,240.951248 474.131561,247.981659 473.970184,254.977600 
	C473.707642,266.359039 471.750000,277.497406 469.287933,288.607544 
	C468.107544,293.934052 467.175873,299.467590 465.667114,304.590149 
	C463.893768,310.611206 462.181396,316.800751 459.554596,322.716736 
	C457.483459,327.381226 455.857422,332.570160 453.772186,337.329865 
	C451.016846,343.619232 447.014984,349.443909 444.190704,355.661774 
	C440.122467,364.618439 433.755280,371.971161 428.616669,380.116058 
	C425.125671,385.649384 420.096863,390.577484 415.766693,395.765289 
	C408.547058,404.414825 400.071442,411.769867 391.738800,419.165344 
	C387.816467,422.646545 383.397797,425.994873 378.817993,428.966644 
	C373.937286,432.133728 369.220612,435.679047 364.310181,438.856476 
	C360.164825,441.538879 355.724579,443.776031 351.358887,446.105286 
	C342.715576,450.716766 334.083740,455.368774 324.136719,458.023682 
z"/>
<path fill="#000000" opacity="1.000000" stroke="none" 
	d="
M338.705444,367.987488 
	C331.680939,371.887177 324.478821,372.165588 317.021851,372.081604 
	C296.196259,371.847046 275.365417,371.900482 254.539001,372.093353 
	C250.869125,372.127350 249.890732,371.328491 249.901474,367.527466 
	C250.047867,315.707275 249.959747,263.886505 250.034683,212.066010 
	C250.049286,201.962784 249.818207,191.735001 248.563141,181.871353 
	C247.274338,171.742523 245.785538,160.877838 237.699829,152.666824 
	C236.255005,151.199615 234.670410,148.531769 233.956436,145.984436 
	C233.700165,145.070129 233.363419,143.748215 232.690338,143.447571 
	C226.091583,140.500153 228.130402,138.535782 232.898483,135.433090 
	C243.556458,128.497742 253.509781,120.524658 264.283234,113.704269 
	C266.509613,112.294807 268.917084,110.637100 270.962097,108.663780 
	C273.440002,106.272774 276.187775,106.767380 278.641083,109.171066 
	C282.380890,112.835220 284.406982,117.541878 286.558655,122.150864 
	C287.922119,125.071487 288.423950,127.407471 292.654724,124.304283 
	C299.289886,119.437508 305.926758,114.520782 312.882904,110.034386 
	C321.865265,104.241135 330.632172,104.649895 339.696899,110.767479 
	C351.344727,118.628342 361.480072,128.224579 372.169739,137.164627 
	C378.272430,142.268463 383.981354,148.183212 388.522095,154.674072 
	C390.865234,158.023514 390.757141,163.414291 390.898376,167.909668 
	C391.194061,177.321014 391.364380,186.761475 390.015900,196.143265 
	C389.325043,200.949921 386.323181,204.720108 383.786865,208.405838 
	C379.445374,214.714767 374.047668,220.262970 368.307068,225.465134 
	C364.484192,228.929428 365.166931,231.445251 369.991760,234.987976 
	C381.229858,243.239807 391.071136,252.993866 399.209808,264.223755 
	C401.644470,267.583160 402.919403,272.365601 402.983398,276.951630 
	C403.055420,282.116028 402.752899,287.296509 403.050995,292.444641 
	C403.689880,303.478363 399.658325,312.726776 393.004822,321.203400 
	C383.909546,332.790863 373.497620,342.920532 362.031616,352.223083 
	C356.004730,357.112762 349.375641,361.062592 343.414093,365.967804 
	C342.232483,366.940063 340.565216,367.322021 338.705444,367.987488 
z"/>
<path fill="#000000" opacity="1.000000" stroke="none" 
	d="
M84.955276,168.128265 
	C87.601547,160.941849 92.334717,155.560333 96.801689,150.050461 
	C106.177025,138.486252 117.493034,128.797485 128.801590,119.312569 
	C134.178421,114.802826 140.323700,110.673798 147.179184,107.766190 
	C152.440399,105.534752 157.521362,104.172554 162.529434,106.192841 
	C167.976669,108.390297 173.068283,111.679626 177.952774,115.022163 
	C192.445221,124.939606 204.668686,137.563858 216.297379,150.447876 
	C223.701920,158.651733 229.508759,168.248444 231.410675,180.430817 
	C234.388306,199.503586 232.259567,218.432816 232.863937,237.399841 
	C233.479233,256.709778 233.805099,276.100861 232.698212,295.366852 
	C232.031021,306.979614 227.050064,317.830292 219.263474,326.974579 
	C208.069794,340.120026 195.726898,352.167419 182.262985,362.876343 
	C175.541626,368.222382 168.378876,373.400299 159.417038,375.429138 
	C152.698364,376.950165 147.533493,373.776550 142.708038,370.906708 
	C129.061020,362.790466 117.288155,352.234528 106.158928,340.869690 
	C99.804100,334.380371 93.897713,327.639130 88.705978,320.222015 
	C84.429657,314.112640 82.658058,307.440460 81.812775,299.928894 
	C77.693474,263.322968 80.976311,226.643219 80.237823,190.013824 
	C80.104820,183.416534 82.364830,176.651077 83.107719,169.895752 
	C83.164032,169.383682 84.287766,168.988998 84.955276,168.128265 
z"/>
<path fill="#FFFFFF" opacity="1.000000" stroke="none" 
	d="
M351.861176,271.605835 
	C353.731964,282.946686 354.975464,294.385162 351.553101,304.697754 
	C348.330231,314.409363 340.611603,322.129150 331.601593,327.799286 
	C330.985046,328.187286 329.973602,327.992096 329.145721,327.993103 
	C320.157928,328.004028 311.167725,327.883606 302.183777,328.069519 
	C299.429718,328.126526 298.941101,327.160675 298.950806,324.677826 
	C299.035950,302.874451 299.042938,281.070374 298.943359,259.267090 
	C298.931549,256.681122 299.592285,255.894760 302.238495,255.937286 
	C312.055969,256.095032 321.877838,255.949738 331.697327,256.019958 
	C337.088257,256.058533 340.092682,260.467010 343.966644,263.183563 
	C347.017609,265.323029 348.522583,269.125916 351.861176,271.605835 
z"/>
<path fill="#FFFFFF" opacity="1.000000" stroke="none" 
	d="
M299.002075,214.802628 
	C299.000183,198.518997 299.062103,182.718231 298.927338,166.919174 
	C298.908966,164.764542 299.864655,162.529312 297.323700,160.312119 
	C295.577606,158.788498 298.953003,156.588043 300.258728,156.191986 
	C306.431580,154.319641 312.598755,152.606628 319.306915,152.819092 
	C325.365723,153.010986 328.986115,155.740448 332.819580,160.008850 
	C336.764038,164.400833 340.374481,169.396225 341.354340,174.561188 
	C342.548950,180.858612 342.841156,187.612381 340.650818,194.512970 
	C338.694183,200.677322 334.973206,205.375778 331.620483,210.296539 
	C329.131653,213.949402 325.366730,217.423920 319.746979,217.079056 
	C313.947693,216.723190 308.108765,217.050842 302.289062,216.959137 
	C301.047760,216.939575 299.027130,217.910995 299.002075,214.802628 
z"/>
<path fill="#FFFFFF" opacity="1.000000" stroke="none" 
	d="
M130.000000,196.736298 
	C130.498169,191.696869 129.905029,187.137436 130.573898,182.479233 
	C131.192108,178.173859 133.688278,175.172211 135.738647,172.160294 
	C138.049667,168.765488 140.569244,165.301804 143.716431,162.294968 
	C148.434158,157.787613 153.368286,155.002991 159.815689,156.115341 
	C162.247391,156.534866 165.244568,157.657974 166.613724,159.486404 
	C170.287262,164.392166 175.422729,167.984756 178.358398,173.585770 
	C180.626694,177.913483 182.673782,182.172409 182.987671,187.072327 
	C184.943649,217.607483 183.742706,248.179764 183.894852,278.734528 
	C183.924988,284.790222 183.921997,291.118408 182.700363,296.909302 
	C180.985046,305.040527 176.551437,312.384003 169.682953,317.618622 
	C167.420639,319.342743 166.512527,322.058929 163.233566,323.259827 
	C155.930847,325.934387 151.155014,325.529297 145.356705,320.094269 
	C138.724503,313.877594 133.310257,306.900452 130.583099,298.095673 
	C130.298752,297.177612 130.121918,296.213104 130.010239,295.256714 
	C127.321594,272.231354 128.106339,249.104187 128.003143,226.003189 
	C127.981567,221.174927 128.339188,216.315872 127.906830,211.526550 
	C127.453384,206.503708 129.038071,201.935898 130.000000,196.736298 
z"/>
</svg>